# Blender 3.3.1
# www.blender.org
mtllib murepais.mtl
o Plane
v -1.000000 -0.966513 0.010340
v 1.000000 -0.966513 0.010340
v -1.000000 1.033380 -0.010340
v 1.000000 1.033380 -0.010340
v -1.000000 -0.965375 0.120334
v 1.000000 -0.965375 0.120334
v -1.000000 1.034518 0.099654
v 1.000000 1.034518 0.099654
v -1.000000 -0.964238 0.230329
v 1.000000 -0.964238 0.230329
v -1.000000 1.035655 0.209648
v 1.000000 1.035655 0.209648
v -1.000000 -0.963101 0.340323
v 1.000000 -0.963101 0.340323
v -1.000000 1.036793 0.319642
v 1.000000 1.036793 0.319642
v -1.000000 -0.961963 0.450317
v 1.000000 -0.961963 0.450317
v -1.000000 1.037930 0.429636
v 1.000000 1.037930 0.429636
vn -0.0000 0.0103 0.9999
vt 0.000000 0.000000
vt 1.000000 0.000000
vt 0.000000 1.000000
vt 1.000000 1.000000
vt 0.000000 0.000000
vt 1.000000 0.000000
vt 0.000000 1.000000
vt 1.000000 1.000000
vt 0.000000 0.000000
vt 1.000000 0.000000
vt 0.000000 1.000000
vt 1.000000 1.000000
vt 0.000000 0.000000
vt 1.000000 0.000000
vt 0.000000 1.000000
vt 1.000000 1.000000
vt 0.000000 0.000000
vt 1.000000 0.000000
vt 0.000000 1.000000
vt 1.000000 1.000000
s 0
f 1/1/1 2/2/1 4/4/1 3/3/1
f 5/5/1 6/6/1 8/8/1 7/7/1
f 9/9/1 10/10/1 12/12/1 11/11/1
f 13/13/1 14/14/1 16/16/1 15/15/1
f 17/17/1 18/18/1 20/20/1 19/19/1
